<svg width="198" height="40" viewBox="0 0 198 40" fill="none" xmlns="http://www.w3.org/2000/svg">
<g filter="url(#filter0_b_2_8)">
<path fill-rule="evenodd" clip-rule="evenodd" d="M0 0H198V40H0V0ZM31.1827 15.0477L29.1419 16.1929C27.5869 14.2326 25.3409 13.2525 22.4039 13.2525C20.2011 13.2525 18.441 13.8664 17.1236 15.0941C15.8062 16.3219 15.1475 17.9468 15.1475 19.969C15.1475 21.95 15.8224 23.5801 17.1722 24.8594C18.522 26.1387 20.2658 26.7784 22.4039 26.7784C25.2761 26.7784 27.5222 25.7777 29.1419 23.7761L31.2151 24.9213C29.2282 27.6244 26.3235 28.976 22.501 28.976C19.5856 28.976 17.2046 28.1609 15.3581 26.5308C13.5117 24.9007 12.5884 22.7134 12.5884 19.969C12.5884 17.2453 13.5224 15.0735 15.3905 13.4537C17.2586 11.8339 19.6288 11.024 22.501 11.024C26.3668 11.024 29.2606 12.3652 31.1827 15.0477V15.0477ZM34.2278 11.4263H36.7545V18.5453H49.615V11.4263H52.1742V28.5427H49.615V20.7738H36.7545V28.5427H34.2278V11.4263V11.4263ZM57.8431 20C57.8647 22.1047 58.5721 23.7658 59.965 24.9832C61.3579 26.2007 63.1342 26.8094 65.2938 26.8094C67.4318 26.8094 69.2027 26.1955 70.6065 24.9677C72.0102 23.74 72.7121 22.0841 72.7121 20C72.7121 17.9159 72.0102 16.26 70.6065 15.0322C69.2027 13.8045 67.4318 13.1906 65.2938 13.1906C63.1342 13.1906 61.3579 13.7993 59.965 15.0168C58.5721 16.2342 57.8647 17.8952 57.8431 20V20ZM72.4367 13.5156C74.3264 15.1767 75.2712 17.3381 75.2712 20C75.2712 22.6618 74.3264 24.8233 72.4367 26.4844C70.5471 28.1455 68.1661 28.976 65.2938 28.976C62.4215 28.976 60.0406 28.1455 58.1509 26.4844C56.2613 24.8233 55.3164 22.6618 55.3164 20C55.3164 17.3381 56.2613 15.1767 58.1509 13.5156C60.0406 11.8545 62.4215 11.024 65.2938 11.024C68.1661 11.024 70.5471 11.8545 72.4367 13.5156ZM76.2431 11.4263H79.191L85.9613 21.7023H86.4473L93.0881 11.4263H96.0359L87.3867 24.2713V28.5427H84.86V24.2713L76.2431 11.4263V11.4263ZM122.21 20C122.232 22.1047 122.939 23.7658 124.332 24.9832C125.725 26.2007 127.502 26.8094 129.661 26.8094C131.799 26.8094 133.57 26.1955 134.974 24.9677C136.378 23.74 137.079 22.0841 137.079 20C137.079 17.9159 136.378 16.26 134.974 15.0322C133.57 13.8045 131.799 13.1906 129.661 13.1906C127.502 13.1906 125.725 13.7993 124.332 15.0168C122.939 16.2342 122.232 17.8952 122.21 20V20ZM136.804 13.5156C138.694 15.1767 139.639 17.3381 139.639 20C139.639 22.6618 138.694 24.8233 136.804 26.4844C134.914 28.1455 132.533 28.976 129.661 28.976C126.789 28.976 124.408 28.1455 122.518 26.4844C120.629 24.8233 119.684 22.6618 119.684 20C119.684 17.3381 120.629 15.1767 122.518 13.5156C124.408 11.8545 126.789 11.024 129.661 11.024C132.533 11.024 134.914 11.8545 136.804 13.5156ZM142.781 11.4263H145.567L158.589 25.3547V11.4263H161.084V28.5427H158.265L145.275 14.5834V28.5427H142.781V11.4263V11.4263ZM173.491 13.6239L169.085 23.5285H180.423L176.147 13.6239H173.491ZM171.936 11.4263H177.799L185.412 28.5427H182.755L181.492 25.757H168.113L166.85 28.5427H164.129L171.936 11.4263V11.4263ZM98.5627 11.4263H101.543L106.726 18.6072H108.605L113.885 11.4263H116.768L110.711 19.5048L117.416 28.5427H114.403L108.735 20.8666H106.629L100.928 28.5427H97.9472L104.653 19.5976L98.5627 11.4263V11.4263Z" fill="white" fill-opacity="0.6"/>
</g>
<defs>
<filter id="filter0_b_2_8" x="-6" y="-6" width="210" height="52" filterUnits="userSpaceOnUse" color-interpolation-filters="sRGB">
<feFlood flood-opacity="0" result="BackgroundImageFix"/>
<feGaussianBlur in="BackgroundImageFix" stdDeviation="3"/>
<feComposite in2="SourceAlpha" operator="in" result="effect1_backgroundBlur_2_8"/>
<feBlend mode="normal" in="SourceGraphic" in2="effect1_backgroundBlur_2_8" result="shape"/>
</filter>
</defs>
</svg>
